<?xml version="1.0"?>
<!-- Generated by SVGo -->
<svg width="1200" height="500"
     xmlns="http://www.w3.org/2000/svg"
     xmlns:xlink="http://www.w3.org/1999/xlink">
<desc>75fdeba8-0d46-4381-ba82-f5c369bd767e|505|0</desc>
<rect x="0" y="0" width="1200" height="500" style="fill:rgb(255,255,255)" />
<text x="600" y="100" style="text-anchor:middle;font-size:36px;fill:black" >Concert 1</text>
<text x="600" y="150" style="text-anchor:middle;font-size:24px;fill:black" >Venue 1</text>
<line x1="300" y1="170" x2="900" y2="170" style="stroke:rgb(0,0,0);stroke-width:2" />
<style type="text/css">
<![CDATA[
rect {fill: white; stroke-width: 1; stroke: black;}
]]>
</style>
<rect x="584" y="240" width="20" height="20" />
<rect x="604" y="240" width="20" height="20" />
<rect x="564" y="240" width="20" height="20" />
<rect x="624" y="240" width="20" height="20" />
<rect x="544" y="240" width="20" height="20" />
<rect x="644" y="240" width="20" height="20" />
<rect x="524" y="240" width="20" height="20" />
<rect x="664" y="240" width="20" height="20" />
<rect x="504" y="240" width="20" height="20" />
<rect x="684" y="240" width="20" height="20" />
<rect x="484" y="240" width="20" height="20" />
<rect x="704" y="240" width="20" height="20" />
<rect x="464" y="240" width="20" height="20" />
<rect x="724" y="240" width="20" height="20" />
<rect x="444" y="240" width="20" height="20" />
<rect x="744" y="240" width="20" height="20" />
<rect x="424" y="240" width="20" height="20" />
<rect x="764" y="240" width="20" height="20" />
<rect x="404" y="240" width="20" height="20" />
<rect x="784" y="240" width="20" height="20" />
<rect x="384" y="240" width="20" height="20" />
<rect x="804" y="240" width="20" height="20" />
<rect x="364" y="240" width="20" height="20" />
<rect x="824" y="240" width="20" height="20" />
<rect x="344" y="240" width="20" height="20" />
<rect x="844" y="240" width="20" height="20" />
<rect x="324" y="240" width="20" height="20" />
<rect x="864" y="240" width="20" height="20" />
<rect x="304" y="240" width="20" height="20" />
<rect x="884" y="240" width="20" height="20" />
<rect x="284" y="240" width="20" height="20" />
<rect x="904" y="240" width="20" height="20" />
<rect x="264" y="240" width="20" height="20" />
<rect x="924" y="240" width="20" height="20" />
<rect x="244" y="240" width="20" height="20" />
<rect x="944" y="240" width="20" height="20" />
<rect x="224" y="240" width="20" height="20" />
<rect x="964" y="240" width="20" height="20" />
<rect x="204" y="240" width="20" height="20" />
<rect x="984" y="240" width="20" height="20" />
<rect x="184" y="240" width="20" height="20" />
<rect x="1004" y="240" width="20" height="20" />
<rect x="164" y="240" width="20" height="20" />
<rect x="1024" y="240" width="20" height="20" />
<rect x="144" y="240" width="20" height="20" />
<rect x="1044" y="240" width="20" height="20" />
<rect x="124" y="240" width="20" height="20" />
<rect x="1064" y="240" width="20" height="20" />
<rect x="104" y="240" width="20" height="20" />
<rect x="1084" y="240" width="20" height="20" />
<rect x="590" y="260" width="20" height="20" />
<rect x="610" y="260" width="20" height="20" />
<rect x="570" y="260" width="20" height="20" />
<rect x="630" y="260" width="20" height="20" />
<rect x="550" y="260" width="20" height="20" />
<rect x="650" y="260" width="20" height="20" />
<rect x="530" y="260" width="20" height="20" />
<rect x="670" y="260" width="20" height="20" />
<rect x="510" y="260" width="20" height="20" />
<rect x="690" y="260" width="20" height="20" />
<rect x="490" y="260" width="20" height="20" />
<rect x="710" y="260" width="20" height="20" />
<rect x="470" y="260" width="20" height="20" />
<rect x="730" y="260" width="20" height="20" />
<rect x="450" y="260" width="20" height="20" />
<rect x="750" y="260" width="20" height="20" />
<rect x="430" y="260" width="20" height="20" />
<rect x="770" y="260" width="20" height="20" />
<rect x="410" y="260" width="20" height="20" />
<rect x="790" y="260" width="20" height="20" />
<rect x="390" y="260" width="20" height="20" />
<rect x="810" y="260" width="20" height="20" />
<rect x="370" y="260" width="20" height="20" />
<rect x="830" y="260" width="20" height="20" />
<rect x="350" y="260" width="20" height="20" />
<rect x="850" y="260" width="20" height="20" />
<rect x="330" y="260" width="20" height="20" />
<rect x="870" y="260" width="20" height="20" />
<rect x="310" y="260" width="20" height="20" />
<rect x="890" y="260" width="20" height="20" />
<rect x="290" y="260" width="20" height="20" />
<rect x="910" y="260" width="20" height="20" />
<rect x="270" y="260" width="20" height="20" />
<rect x="930" y="260" width="20" height="20" />
<rect x="250" y="260" width="20" height="20" />
<rect x="950" y="260" width="20" height="20" />
<rect x="230" y="260" width="20" height="20" />
<rect x="970" y="260" width="20" height="20" />
<rect x="210" y="260" width="20" height="20" />
<rect x="990" y="260" width="20" height="20" />
<rect x="190" y="260" width="20" height="20" />
<rect x="1010" y="260" width="20" height="20" />
<rect x="170" y="260" width="20" height="20" />
<rect x="1030" y="260" width="20" height="20" />
<rect x="150" y="260" width="20" height="20" />
<rect x="1050" y="260" width="20" height="20" />
<rect x="130" y="260" width="20" height="20" />
<rect x="1070" y="260" width="20" height="20" />
<rect x="110" y="260" width="20" height="20" />
<rect x="1090" y="260" width="20" height="20" />
<rect x="596" y="280" width="20" height="20" />
<rect x="616" y="280" width="20" height="20" />
<rect x="576" y="280" width="20" height="20" />
<rect x="636" y="280" width="20" height="20" />
<rect x="556" y="280" width="20" height="20" />
<rect x="656" y="280" width="20" height="20" />
<rect x="536" y="280" width="20" height="20" />
<rect x="676" y="280" width="20" height="20" />
<rect x="516" y="280" width="20" height="20" />
<rect x="696" y="280" width="20" height="20" />
<rect x="496" y="280" width="20" height="20" />
<rect x="716" y="280" width="20" height="20" />
<rect x="476" y="280" width="20" height="20" />
<rect x="736" y="280" width="20" height="20" />
<rect x="456" y="280" width="20" height="20" />
<rect x="756" y="280" width="20" height="20" />
<rect x="436" y="280" width="20" height="20" />
<rect x="776" y="280" width="20" height="20" />
<rect x="416" y="280" width="20" height="20" />
<rect x="796" y="280" width="20" height="20" />
<rect x="396" y="280" width="20" height="20" />
<rect x="816" y="280" width="20" height="20" />
<rect x="376" y="280" width="20" height="20" />
<rect x="836" y="280" width="20" height="20" />
<rect x="356" y="280" width="20" height="20" />
<rect x="856" y="280" width="20" height="20" />
<rect x="336" y="280" width="20" height="20" />
<rect x="876" y="280" width="20" height="20" />
<rect x="316" y="280" width="20" height="20" />
<rect x="896" y="280" width="20" height="20" />
<rect x="296" y="280" width="20" height="20" />
<rect x="916" y="280" width="20" height="20" />
<rect x="276" y="280" width="20" height="20" />
<rect x="936" y="280" width="20" height="20" />
<rect x="256" y="280" width="20" height="20" />
<rect x="956" y="280" width="20" height="20" />
<rect x="236" y="280" width="20" height="20" />
<rect x="976" y="280" width="20" height="20" />
<rect x="216" y="280" width="20" height="20" />
<rect x="996" y="280" width="20" height="20" />
<rect x="196" y="280" width="20" height="20" />
<rect x="1016" y="280" width="20" height="20" />
<rect x="176" y="280" width="20" height="20" />
<rect x="1036" y="280" width="20" height="20" />
<rect x="156" y="280" width="20" height="20" />
<rect x="1056" y="280" width="20" height="20" />
<rect x="136" y="280" width="20" height="20" />
<rect x="1076" y="280" width="20" height="20" />
<rect x="116" y="280" width="20" height="20" />
<rect x="1096" y="280" width="20" height="20" />
<rect x="584" y="300" width="20" height="20" />
<rect x="604" y="300" width="20" height="20" />
<rect x="564" y="300" width="20" height="20" />
<rect x="624" y="300" width="20" height="20" />
<rect x="544" y="300" width="20" height="20" />
<rect x="644" y="300" width="20" height="20" />
<rect x="524" y="300" width="20" height="20" />
<rect x="664" y="300" width="20" height="20" />
<rect x="504" y="300" width="20" height="20" />
<rect x="684" y="300" width="20" height="20" />
<rect x="484" y="300" width="20" height="20" />
<rect x="704" y="300" width="20" height="20" />
<rect x="464" y="300" width="20" height="20" />
<rect x="724" y="300" width="20" height="20" />
<rect x="444" y="300" width="20" height="20" />
<rect x="744" y="300" width="20" height="20" />
<rect x="424" y="300" width="20" height="20" />
<rect x="764" y="300" width="20" height="20" />
<rect x="404" y="300" width="20" height="20" />
<rect x="784" y="300" width="20" height="20" />
<rect x="384" y="300" width="20" height="20" />
<rect x="804" y="300" width="20" height="20" />
<rect x="364" y="300" width="20" height="20" />
<rect x="824" y="300" width="20" height="20" />
<rect x="344" y="300" width="20" height="20" />
<rect x="844" y="300" width="20" height="20" />
<rect x="324" y="300" width="20" height="20" />
<rect x="864" y="300" width="20" height="20" />
<rect x="304" y="300" width="20" height="20" />
<rect x="884" y="300" width="20" height="20" />
<rect x="284" y="300" width="20" height="20" />
<rect x="904" y="300" width="20" height="20" />
<rect x="264" y="300" width="20" height="20" />
<rect x="924" y="300" width="20" height="20" />
<rect x="244" y="300" width="20" height="20" />
<rect x="944" y="300" width="20" height="20" />
<rect x="224" y="300" width="20" height="20" />
<rect x="964" y="300" width="20" height="20" />
<rect x="204" y="300" width="20" height="20" />
<rect x="984" y="300" width="20" height="20" />
<rect x="184" y="300" width="20" height="20" />
<rect x="1004" y="300" width="20" height="20" />
<rect x="164" y="300" width="20" height="20" />
<rect x="1024" y="300" width="20" height="20" />
<rect x="144" y="300" width="20" height="20" />
<rect x="1044" y="300" width="20" height="20" />
<rect x="124" y="300" width="20" height="20" />
<rect x="1064" y="300" width="20" height="20" />
<rect x="104" y="300" width="20" height="20" />
<rect x="1084" y="300" width="20" height="20" />
<rect x="590" y="320" width="20" height="20" />
<rect x="610" y="320" width="20" height="20" />
<rect x="570" y="320" width="20" height="20" />
<rect x="630" y="320" width="20" height="20" />
<rect x="550" y="320" width="20" height="20" />
<rect x="650" y="320" width="20" height="20" />
<rect x="530" y="320" width="20" height="20" />
<rect x="670" y="320" width="20" height="20" />
<rect x="510" y="320" width="20" height="20" />
<rect x="690" y="320" width="20" height="20" />
<rect x="490" y="320" width="20" height="20" />
<rect x="710" y="320" width="20" height="20" />
<rect x="470" y="320" width="20" height="20" />
<rect x="730" y="320" width="20" height="20" />
<rect x="450" y="320" width="20" height="20" />
<rect x="750" y="320" width="20" height="20" />
<rect x="430" y="320" width="20" height="20" />
<rect x="770" y="320" width="20" height="20" />
<rect x="410" y="320" width="20" height="20" />
<rect x="790" y="320" width="20" height="20" />
<rect x="390" y="320" width="20" height="20" />
<rect x="810" y="320" width="20" height="20" />
<rect x="370" y="320" width="20" height="20" />
<rect x="830" y="320" width="20" height="20" />
<rect x="350" y="320" width="20" height="20" />
<rect x="850" y="320" width="20" height="20" />
<rect x="330" y="320" width="20" height="20" />
<rect x="870" y="320" width="20" height="20" />
<rect x="310" y="320" width="20" height="20" />
<rect x="890" y="320" width="20" height="20" />
<rect x="290" y="320" width="20" height="20" />
<rect x="910" y="320" width="20" height="20" />
<rect x="270" y="320" width="20" height="20" />
<rect x="930" y="320" width="20" height="20" />
<rect x="250" y="320" width="20" height="20" />
<rect x="950" y="320" width="20" height="20" />
<rect x="230" y="320" width="20" height="20" />
<rect x="970" y="320" width="20" height="20" />
<rect x="210" y="320" width="20" height="20" />
<rect x="990" y="320" width="20" height="20" />
<rect x="190" y="320" width="20" height="20" />
<rect x="1010" y="320" width="20" height="20" />
<rect x="170" y="320" width="20" height="20" />
<rect x="1030" y="320" width="20" height="20" />
<rect x="150" y="320" width="20" height="20" />
<rect x="1050" y="320" width="20" height="20" />
<rect x="130" y="320" width="20" height="20" />
<rect x="1070" y="320" width="20" height="20" />
<rect x="110" y="320" width="20" height="20" />
<rect x="1090" y="320" width="20" height="20" />
<rect x="596" y="340" width="20" height="20" />
<rect x="616" y="340" width="20" height="20" />
<rect x="576" y="340" width="20" height="20" />
<rect x="636" y="340" width="20" height="20" />
<rect x="556" y="340" width="20" height="20" />
<rect x="656" y="340" width="20" height="20" />
<rect x="536" y="340" width="20" height="20" />
<rect x="676" y="340" width="20" height="20" />
<rect x="516" y="340" width="20" height="20" />
<rect x="696" y="340" width="20" height="20" />
<rect x="496" y="340" width="20" height="20" />
<rect x="716" y="340" width="20" height="20" />
<rect x="476" y="340" width="20" height="20" />
<rect x="736" y="340" width="20" height="20" />
<rect x="456" y="340" width="20" height="20" />
<rect x="756" y="340" width="20" height="20" />
<rect x="436" y="340" width="20" height="20" />
<rect x="776" y="340" width="20" height="20" />
<rect x="416" y="340" width="20" height="20" />
<rect x="796" y="340" width="20" height="20" />
<rect x="396" y="340" width="20" height="20" />
<rect x="816" y="340" width="20" height="20" />
<rect x="376" y="340" width="20" height="20" />
<rect x="836" y="340" width="20" height="20" />
<rect x="356" y="340" width="20" height="20" />
<rect x="856" y="340" width="20" height="20" />
<rect x="336" y="340" width="20" height="20" />
<rect x="876" y="340" width="20" height="20" />
<rect x="316" y="340" width="20" height="20" />
<rect x="896" y="340" width="20" height="20" />
<rect x="296" y="340" width="20" height="20" />
<rect x="916" y="340" width="20" height="20" />
<rect x="276" y="340" width="20" height="20" />
<rect x="936" y="340" width="20" height="20" />
<rect x="256" y="340" width="20" height="20" />
<rect x="956" y="340" width="20" height="20" />
<rect x="236" y="340" width="20" height="20" />
<rect x="976" y="340" width="20" height="20" />
<rect x="216" y="340" width="20" height="20" />
<rect x="996" y="340" width="20" height="20" />
<rect x="196" y="340" width="20" height="20" />
<rect x="1016" y="340" width="20" height="20" />
<rect x="176" y="340" width="20" height="20" />
<rect x="1036" y="340" width="20" height="20" />
<rect x="156" y="340" width="20" height="20" />
<rect x="1056" y="340" width="20" height="20" />
<rect x="136" y="340" width="20" height="20" />
<rect x="1076" y="340" width="20" height="20" />
<rect x="116" y="340" width="20" height="20" />
<rect x="1096" y="340" width="20" height="20" />
<rect x="584" y="360" width="20" height="20" />
<rect x="604" y="360" width="20" height="20" />
<rect x="564" y="360" width="20" height="20" />
<rect x="624" y="360" width="20" height="20" />
<rect x="544" y="360" width="20" height="20" />
<rect x="644" y="360" width="20" height="20" />
<rect x="524" y="360" width="20" height="20" />
<rect x="664" y="360" width="20" height="20" />
<rect x="504" y="360" width="20" height="20" />
<rect x="684" y="360" width="20" height="20" />
<rect x="484" y="360" width="20" height="20" />
<rect x="704" y="360" width="20" height="20" />
<rect x="464" y="360" width="20" height="20" />
<rect x="724" y="360" width="20" height="20" />
<rect x="444" y="360" width="20" height="20" />
<rect x="744" y="360" width="20" height="20" />
<rect x="424" y="360" width="20" height="20" />
<rect x="764" y="360" width="20" height="20" />
<rect x="404" y="360" width="20" height="20" />
<rect x="784" y="360" width="20" height="20" />
<rect x="384" y="360" width="20" height="20" />
<rect x="804" y="360" width="20" height="20" />
<rect x="364" y="360" width="20" height="20" />
<rect x="824" y="360" width="20" height="20" />
<rect x="344" y="360" width="20" height="20" />
<rect x="844" y="360" width="20" height="20" />
<rect x="324" y="360" width="20" height="20" />
<rect x="864" y="360" width="20" height="20" />
<rect x="304" y="360" width="20" height="20" />
<rect x="884" y="360" width="20" height="20" />
<rect x="284" y="360" width="20" height="20" />
<rect x="904" y="360" width="20" height="20" />
<rect x="264" y="360" width="20" height="20" />
<rect x="924" y="360" width="20" height="20" />
<rect x="244" y="360" width="20" height="20" />
<rect x="944" y="360" width="20" height="20" />
<rect x="224" y="360" width="20" height="20" />
<rect x="964" y="360" width="20" height="20" />
<rect x="204" y="360" width="20" height="20" />
<rect x="984" y="360" width="20" height="20" />
<rect x="184" y="360" width="20" height="20" />
<rect x="1004" y="360" width="20" height="20" />
<rect x="164" y="360" width="20" height="20" />
<rect x="1024" y="360" width="20" height="20" />
<rect x="144" y="360" width="20" height="20" />
<rect x="1044" y="360" width="20" height="20" />
<rect x="124" y="360" width="20" height="20" />
<rect x="1064" y="360" width="20" height="20" />
<rect x="104" y="360" width="20" height="20" />
<rect x="1084" y="360" width="20" height="20" />
<rect x="590" y="380" width="20" height="20" />
<rect x="610" y="380" width="20" height="20" />
<rect x="570" y="380" width="20" height="20" />
<rect x="630" y="380" width="20" height="20" />
<rect x="550" y="380" width="20" height="20" />
<rect x="650" y="380" width="20" height="20" />
<rect x="530" y="380" width="20" height="20" />
<rect x="670" y="380" width="20" height="20" />
<rect x="510" y="380" width="20" height="20" />
<rect x="690" y="380" width="20" height="20" />
<rect x="490" y="380" width="20" height="20" />
<rect x="710" y="380" width="20" height="20" />
<rect x="470" y="380" width="20" height="20" />
<rect x="730" y="380" width="20" height="20" />
<rect x="450" y="380" width="20" height="20" />
<rect x="750" y="380" width="20" height="20" />
<rect x="430" y="380" width="20" height="20" />
<rect x="770" y="380" width="20" height="20" />
<rect x="410" y="380" width="20" height="20" />
<rect x="790" y="380" width="20" height="20" />
<rect x="390" y="380" width="20" height="20" />
<rect x="810" y="380" width="20" height="20" />
<rect x="370" y="380" width="20" height="20" />
<rect x="830" y="380" width="20" height="20" />
<rect x="350" y="380" width="20" height="20" />
<rect x="850" y="380" width="20" height="20" />
<rect x="330" y="380" width="20" height="20" />
<rect x="870" y="380" width="20" height="20" />
<rect x="310" y="380" width="20" height="20" />
<rect x="890" y="380" width="20" height="20" />
<rect x="290" y="380" width="20" height="20" />
<rect x="910" y="380" width="20" height="20" />
<rect x="270" y="380" width="20" height="20" />
<rect x="930" y="380" width="20" height="20" />
<rect x="250" y="380" width="20" height="20" />
<rect x="950" y="380" width="20" height="20" />
<rect x="230" y="380" width="20" height="20" />
<rect x="970" y="380" width="20" height="20" />
<rect x="210" y="380" width="20" height="20" />
<rect x="990" y="380" width="20" height="20" />
<rect x="190" y="380" width="20" height="20" />
<rect x="1010" y="380" width="20" height="20" />
<rect x="170" y="380" width="20" height="20" />
<rect x="1030" y="380" width="20" height="20" />
<rect x="150" y="380" width="20" height="20" />
<rect x="1050" y="380" width="20" height="20" />
<rect x="130" y="380" width="20" height="20" />
<rect x="1070" y="380" width="20" height="20" />
<rect x="110" y="380" width="20" height="20" />
<rect x="1090" y="380" width="20" height="20" />
<rect x="596" y="400" width="20" height="20" />
<rect x="616" y="400" width="20" height="20" />
<rect x="576" y="400" width="20" height="20" />
<rect x="636" y="400" width="20" height="20" />
<rect x="556" y="400" width="20" height="20" />
<rect x="656" y="400" width="20" height="20" />
<rect x="536" y="400" width="20" height="20" />
<rect x="676" y="400" width="20" height="20" />
<rect x="516" y="400" width="20" height="20" />
<rect x="696" y="400" width="20" height="20" />
<rect x="496" y="400" width="20" height="20" />
<rect x="716" y="400" width="20" height="20" />
<rect x="476" y="400" width="20" height="20" />
<rect x="736" y="400" width="20" height="20" />
<rect x="456" y="400" width="20" height="20" />
<rect x="756" y="400" width="20" height="20" />
<rect x="436" y="400" width="20" height="20" />
<rect x="776" y="400" width="20" height="20" />
<rect x="416" y="400" width="20" height="20" />
<rect x="796" y="400" width="20" height="20" />
<rect x="396" y="400" width="20" height="20" />
<rect x="816" y="400" width="20" height="20" />
<rect x="376" y="400" width="20" height="20" />
<rect x="836" y="400" width="20" height="20" />
<rect x="356" y="400" width="20" height="20" />
<rect x="856" y="400" width="20" height="20" />
<rect x="336" y="400" width="20" height="20" />
<rect x="876" y="400" width="20" height="20" />
<rect x="316" y="400" width="20" height="20" />
<rect x="896" y="400" width="20" height="20" />
<rect x="296" y="400" width="20" height="20" />
<rect x="916" y="400" width="20" height="20" />
<rect x="276" y="400" width="20" height="20" />
<rect x="936" y="400" width="20" height="20" />
<rect x="256" y="400" width="20" height="20" />
<rect x="956" y="400" width="20" height="20" />
<rect x="236" y="400" width="20" height="20" />
<rect x="976" y="400" width="20" height="20" />
<rect x="216" y="400" width="20" height="20" />
<rect x="996" y="400" width="20" height="20" />
<rect x="196" y="400" width="20" height="20" />
<rect x="1016" y="400" width="20" height="20" />
<rect x="176" y="400" width="20" height="20" />
<rect x="1036" y="400" width="20" height="20" />
<rect x="156" y="400" width="20" height="20" />
<rect x="1056" y="400" width="20" height="20" />
<rect x="136" y="400" width="20" height="20" />
<rect x="1076" y="400" width="20" height="20" />
<rect x="116" y="400" width="20" height="20" />
<rect x="1096" y="400" width="20" height="20" />
<rect x="584" y="420" width="20" height="20" />
<rect x="604" y="420" width="20" height="20" />
<rect x="564" y="420" width="20" height="20" />
<rect x="624" y="420" width="20" height="20" />
<rect x="544" y="420" width="20" height="20" />
<rect x="644" y="420" width="20" height="20" />
<rect x="524" y="420" width="20" height="20" />
<rect x="664" y="420" width="20" height="20" />
<rect x="504" y="420" width="20" height="20" />
<rect x="684" y="420" width="20" height="20" />
<rect x="484" y="420" width="20" height="20" />
<rect x="704" y="420" width="20" height="20" />
<rect x="464" y="420" width="20" height="20" />
<rect x="724" y="420" width="20" height="20" />
<rect x="444" y="420" width="20" height="20" />
<rect x="744" y="420" width="20" height="20" />
<rect x="424" y="420" width="20" height="20" />
<rect x="764" y="420" width="20" height="20" />
<rect x="404" y="420" width="20" height="20" />
<rect x="784" y="420" width="20" height="20" />
<rect x="384" y="420" width="20" height="20" />
<rect x="804" y="420" width="20" height="20" />
<rect x="364" y="420" width="20" height="20" />
<rect x="824" y="420" width="20" height="20" />
<rect x="344" y="420" width="20" height="20" />
<rect x="844" y="420" width="20" height="20" />
<rect x="324" y="420" width="20" height="20" />
<rect x="864" y="420" width="20" height="20" />
<rect x="304" y="420" width="20" height="20" />
<rect x="884" y="420" width="20" height="20" />
<rect x="284" y="420" width="20" height="20" />
<rect x="904" y="420" width="20" height="20" />
<rect x="264" y="420" width="20" height="20" />
<rect x="924" y="420" width="20" height="20" />
<rect x="244" y="420" width="20" height="20" />
<rect x="944" y="420" width="20" height="20" />
<rect x="224" y="420" width="20" height="20" />
<rect x="964" y="420" width="20" height="20" />
<rect x="204" y="420" width="20" height="20" />
<rect x="984" y="420" width="20" height="20" />
<rect x="184" y="420" width="20" height="20" />
<rect x="1004" y="420" width="20" height="20" />
<rect x="164" y="420" width="20" height="20" />
<rect x="1024" y="420" width="20" height="20" />
<rect x="144" y="420" width="20" height="20" />
<rect x="1044" y="420" width="20" height="20" />
<rect x="124" y="420" width="20" height="20" />
<rect x="1064" y="420" width="20" height="20" />
<rect x="104" y="420" width="20" height="20" />
<rect x="1084" y="420" width="20" height="20" />
<rect x="590" y="440" width="20" height="20" />
<rect x="610" y="440" width="20" height="20" />
<rect x="570" y="440" width="20" height="20" />
<rect x="630" y="440" width="20" height="20" />
<rect x="550" y="440" width="20" height="20" />
</svg>
