<?xml version="1.0"?>
<!-- Generated by SVGo -->
<svg width="1200" height="518"
     xmlns="http://www.w3.org/2000/svg"
     xmlns:xlink="http://www.w3.org/1999/xlink">
<desc>2a54d807-8b13-4e9f-a755-36b58abd30da</desc>
<rect x="0" y="0" width="1200" height="518" style="fill:rgb(255,255,255)" />
<rect x="0" y="0" width="200" height="518" style="fill:rgb(92,158,173)" />
<rect x="200" y="0" width="20" height="518" style="fill:rgb(50,98,115)" />
<circle cx="210" cy="100" r="50" style="fill:rgb(50,98,115)" />
<text x="300" y="100" style="text-anchor:left;font-size:36px;fill:black" >Phantom of the Opera</text>
<text x="300" y="150" style="text-anchor:left;font-size:24px;fill:black" >2023-06-07</text>
<text x="300" y="200" style="text-anchor:left;font-size:24px;fill:black" >Sydney Opera House</text>
<text x="300" y="250" style="text-anchor:left;font-size:24px;fill:black" >12345678-1234-1234-1234-123456789012</text>
<line x1="300" y1="300" x2="900" y2="300" style="stroke:rgb(0,0,0);stroke-width:2" />
<text x="300" y="350" style="text-anchor:left;font-size:24px;fill:black" >Evan Hughes</text>
<text x="300" y="400" style="text-anchor:left;font-size:24px;fill:black" >example@uq.edu.au</text>
<text x="300" y="450" style="text-anchor:left;font-size:24px;fill:black" >2a54d807-8b13-4e9f-a755-36b58abd30da</text>
<rect x="1190" y="0" width="10" height="518" style="fill:rgb(255,215,0)" />
<rect x="1000" y="80" width="150" height="1" style="fill:rgb(0,0,0)" />
<rect x="1000" y="81" width="150" height="1" style="fill:rgb(0,0,0)" />
<rect x="1000" y="83" width="150" height="1" style="fill:rgb(0,0,0)" />
<rect x="1000" y="86" width="150" height="1" style="fill:rgb(0,0,0)" />
<rect x="1000" y="91" width="150" height="1" style="fill:rgb(0,0,0)" />
<rect x="1000" y="92" width="150" height="1" style="fill:rgb(0,0,0)" />
<rect x="1000" y="95" width="150" height="1" style="fill:rgb(0,0,0)" />
<rect x="1000" y="96" width="150" height="1" style="fill:rgb(0,0,0)" />
<rect x="1000" y="97" width="150" height="1" style="fill:rgb(0,0,0)" />
<rect x="1000" y="100" width="150" height="1" style="fill:rgb(0,0,0)" />
<rect x="1000" y="102" width="150" height="1" style="fill:rgb(0,0,0)" />
<rect x="1000" y="105" width="150" height="1" style="fill:rgb(0,0,0)" />
<rect x="1000" y="107" width="150" height="1" style="fill:rgb(0,0,0)" />
<rect x="1000" y="108" width="150" height="1" style="fill:rgb(0,0,0)" />
<rect x="1000" y="113" width="150" height="1" style="fill:rgb(0,0,0)" />
<rect x="1000" y="114" width="150" height="1" style="fill:rgb(0,0,0)" />
<rect x="1000" y="116" width="150" height="1" style="fill:rgb(0,0,0)" />
<rect x="1000" y="117" width="150" height="1" style="fill:rgb(0,0,0)" />
<rect x="1000" y="118" width="150" height="1" style="fill:rgb(0,0,0)" />
<rect x="1000" y="121" width="150" height="1" style="fill:rgb(0,0,0)" />
<rect x="1000" y="124" width="150" height="1" style="fill:rgb(0,0,0)" />
<rect x="1000" y="125" width="150" height="1" style="fill:rgb(0,0,0)" />
<rect x="1000" y="128" width="150" height="1" style="fill:rgb(0,0,0)" />
<rect x="1000" y="131" width="150" height="1" style="fill:rgb(0,0,0)" />
<rect x="1000" y="132" width="150" height="1" style="fill:rgb(0,0,0)" />
<rect x="1000" y="133" width="150" height="1" style="fill:rgb(0,0,0)" />
<rect x="1000" y="135" width="150" height="1" style="fill:rgb(0,0,0)" />
<rect x="1000" y="140" width="150" height="1" style="fill:rgb(0,0,0)" />
<rect x="1000" y="143" width="150" height="1" style="fill:rgb(0,0,0)" />
<rect x="1000" y="144" width="150" height="1" style="fill:rgb(0,0,0)" />
<rect x="1000" y="146" width="150" height="1" style="fill:rgb(0,0,0)" />
<rect x="1000" y="147" width="150" height="1" style="fill:rgb(0,0,0)" />
<rect x="1000" y="148" width="150" height="1" style="fill:rgb(0,0,0)" />
<rect x="1000" y="150" width="150" height="1" style="fill:rgb(0,0,0)" />
<rect x="1000" y="153" width="150" height="1" style="fill:rgb(0,0,0)" />
<rect x="1000" y="154" width="150" height="1" style="fill:rgb(0,0,0)" />
<rect x="1000" y="157" width="150" height="1" style="fill:rgb(0,0,0)" />
<rect x="1000" y="160" width="150" height="1" style="fill:rgb(0,0,0)" />
<rect x="1000" y="161" width="150" height="1" style="fill:rgb(0,0,0)" />
<rect x="1000" y="162" width="150" height="1" style="fill:rgb(0,0,0)" />
<rect x="1000" y="164" width="150" height="1" style="fill:rgb(0,0,0)" />
<rect x="1000" y="165" width="150" height="1" style="fill:rgb(0,0,0)" />
<rect x="1000" y="168" width="150" height="1" style="fill:rgb(0,0,0)" />
<rect x="1000" y="169" width="150" height="1" style="fill:rgb(0,0,0)" />
<rect x="1000" y="170" width="150" height="1" style="fill:rgb(0,0,0)" />
<rect x="1000" y="172" width="150" height="1" style="fill:rgb(0,0,0)" />
<rect x="1000" y="173" width="150" height="1" style="fill:rgb(0,0,0)" />
<rect x="1000" y="175" width="150" height="1" style="fill:rgb(0,0,0)" />
<rect x="1000" y="176" width="150" height="1" style="fill:rgb(0,0,0)" />
<rect x="1000" y="177" width="150" height="1" style="fill:rgb(0,0,0)" />
<rect x="1000" y="179" width="150" height="1" style="fill:rgb(0,0,0)" />
<rect x="1000" y="182" width="150" height="1" style="fill:rgb(0,0,0)" />
<rect x="1000" y="183" width="150" height="1" style="fill:rgb(0,0,0)" />
<rect x="1000" y="185" width="150" height="1" style="fill:rgb(0,0,0)" />
<rect x="1000" y="186" width="150" height="1" style="fill:rgb(0,0,0)" />
<rect x="1000" y="187" width="150" height="1" style="fill:rgb(0,0,0)" />
<rect x="1000" y="190" width="150" height="1" style="fill:rgb(0,0,0)" />
<rect x="1000" y="191" width="150" height="1" style="fill:rgb(0,0,0)" />
<rect x="1000" y="192" width="150" height="1" style="fill:rgb(0,0,0)" />
<rect x="1000" y="194" width="150" height="1" style="fill:rgb(0,0,0)" />
<rect x="1000" y="197" width="150" height="1" style="fill:rgb(0,0,0)" />
<rect x="1000" y="198" width="150" height="1" style="fill:rgb(0,0,0)" />
<rect x="1000" y="201" width="150" height="1" style="fill:rgb(0,0,0)" />
<rect x="1000" y="204" width="150" height="1" style="fill:rgb(0,0,0)" />
<rect x="1000" y="209" width="150" height="1" style="fill:rgb(0,0,0)" />
<rect x="1000" y="210" width="150" height="1" style="fill:rgb(0,0,0)" />
<rect x="1000" y="212" width="150" height="1" style="fill:rgb(0,0,0)" />
<rect x="1000" y="215" width="150" height="1" style="fill:rgb(0,0,0)" />
<rect x="1000" y="216" width="150" height="1" style="fill:rgb(0,0,0)" />
<rect x="1000" y="217" width="150" height="1" style="fill:rgb(0,0,0)" />
<rect x="1000" y="220" width="150" height="1" style="fill:rgb(0,0,0)" />
<rect x="1000" y="221" width="150" height="1" style="fill:rgb(0,0,0)" />
<rect x="1000" y="223" width="150" height="1" style="fill:rgb(0,0,0)" />
<rect x="1000" y="224" width="150" height="1" style="fill:rgb(0,0,0)" />
<rect x="1000" y="227" width="150" height="1" style="fill:rgb(0,0,0)" />
<rect x="1000" y="229" width="150" height="1" style="fill:rgb(0,0,0)" />
<rect x="1000" y="230" width="150" height="1" style="fill:rgb(0,0,0)" />
<rect x="1000" y="231" width="150" height="1" style="fill:rgb(0,0,0)" />
<rect x="1000" y="234" width="150" height="1" style="fill:rgb(0,0,0)" />
<rect x="1000" y="237" width="150" height="1" style="fill:rgb(0,0,0)" />
<rect x="1000" y="238" width="150" height="1" style="fill:rgb(0,0,0)" />
<rect x="1000" y="240" width="150" height="1" style="fill:rgb(0,0,0)" />
<rect x="1000" y="241" width="150" height="1" style="fill:rgb(0,0,0)" />
<rect x="1000" y="242" width="150" height="1" style="fill:rgb(0,0,0)" />
<rect x="1000" y="245" width="150" height="1" style="fill:rgb(0,0,0)" />
<rect x="1000" y="246" width="150" height="1" style="fill:rgb(0,0,0)" />
<rect x="1000" y="249" width="150" height="1" style="fill:rgb(0,0,0)" />
<rect x="1000" y="252" width="150" height="1" style="fill:rgb(0,0,0)" />
<rect x="1000" y="253" width="150" height="1" style="fill:rgb(0,0,0)" />
<rect x="1000" y="254" width="150" height="1" style="fill:rgb(0,0,0)" />
<rect x="1000" y="256" width="150" height="1" style="fill:rgb(0,0,0)" />
<rect x="1000" y="258" width="150" height="1" style="fill:rgb(0,0,0)" />
<rect x="1000" y="259" width="150" height="1" style="fill:rgb(0,0,0)" />
<rect x="1000" y="262" width="150" height="1" style="fill:rgb(0,0,0)" />
<rect x="1000" y="267" width="150" height="1" style="fill:rgb(0,0,0)" />
<rect x="1000" y="268" width="150" height="1" style="fill:rgb(0,0,0)" />
<rect x="1000" y="269" width="150" height="1" style="fill:rgb(0,0,0)" />
<rect x="1000" y="272" width="150" height="1" style="fill:rgb(0,0,0)" />
<rect x="1000" y="274" width="150" height="1" style="fill:rgb(0,0,0)" />
<rect x="1000" y="275" width="150" height="1" style="fill:rgb(0,0,0)" />
<rect x="1000" y="278" width="150" height="1" style="fill:rgb(0,0,0)" />
<rect x="1000" y="280" width="150" height="1" style="fill:rgb(0,0,0)" />
<rect x="1000" y="281" width="150" height="1" style="fill:rgb(0,0,0)" />
<rect x="1000" y="286" width="150" height="1" style="fill:rgb(0,0,0)" />
<rect x="1000" y="289" width="150" height="1" style="fill:rgb(0,0,0)" />
<rect x="1000" y="292" width="150" height="1" style="fill:rgb(0,0,0)" />
<rect x="1000" y="293" width="150" height="1" style="fill:rgb(0,0,0)" />
<rect x="1000" y="295" width="150" height="1" style="fill:rgb(0,0,0)" />
<rect x="1000" y="296" width="150" height="1" style="fill:rgb(0,0,0)" />
<rect x="1000" y="297" width="150" height="1" style="fill:rgb(0,0,0)" />
<rect x="1000" y="300" width="150" height="1" style="fill:rgb(0,0,0)" />
<rect x="1000" y="303" width="150" height="1" style="fill:rgb(0,0,0)" />
<rect x="1000" y="305" width="150" height="1" style="fill:rgb(0,0,0)" />
<rect x="1000" y="306" width="150" height="1" style="fill:rgb(0,0,0)" />
<rect x="1000" y="311" width="150" height="1" style="fill:rgb(0,0,0)" />
<rect x="1000" y="312" width="150" height="1" style="fill:rgb(0,0,0)" />
<rect x="1000" y="313" width="150" height="1" style="fill:rgb(0,0,0)" />
<rect x="1000" y="315" width="150" height="1" style="fill:rgb(0,0,0)" />
<rect x="1000" y="316" width="150" height="1" style="fill:rgb(0,0,0)" />
<rect x="1000" y="318" width="150" height="1" style="fill:rgb(0,0,0)" />
<rect x="1000" y="319" width="150" height="1" style="fill:rgb(0,0,0)" />
<rect x="1000" y="320" width="150" height="1" style="fill:rgb(0,0,0)" />
<rect x="1000" y="322" width="150" height="1" style="fill:rgb(0,0,0)" />
<rect x="1000" y="323" width="150" height="1" style="fill:rgb(0,0,0)" />
<rect x="1000" y="325" width="150" height="1" style="fill:rgb(0,0,0)" />
<rect x="1000" y="326" width="150" height="1" style="fill:rgb(0,0,0)" />
<rect x="1000" y="327" width="150" height="1" style="fill:rgb(0,0,0)" />
<rect x="1000" y="330" width="150" height="1" style="fill:rgb(0,0,0)" />
<rect x="1000" y="333" width="150" height="1" style="fill:rgb(0,0,0)" />
<rect x="1000" y="334" width="150" height="1" style="fill:rgb(0,0,0)" />
<rect x="1000" y="336" width="150" height="1" style="fill:rgb(0,0,0)" />
<rect x="1000" y="337" width="150" height="1" style="fill:rgb(0,0,0)" />
<rect x="1000" y="338" width="150" height="1" style="fill:rgb(0,0,0)" />
<rect x="1000" y="341" width="150" height="1" style="fill:rgb(0,0,0)" />
<rect x="1000" y="344" width="150" height="1" style="fill:rgb(0,0,0)" />
<rect x="1000" y="347" width="150" height="1" style="fill:rgb(0,0,0)" />
<rect x="1000" y="348" width="150" height="1" style="fill:rgb(0,0,0)" />
<rect x="1000" y="350" width="150" height="1" style="fill:rgb(0,0,0)" />
<rect x="1000" y="351" width="150" height="1" style="fill:rgb(0,0,0)" />
<rect x="1000" y="352" width="150" height="1" style="fill:rgb(0,0,0)" />
<rect x="1000" y="355" width="150" height="1" style="fill:rgb(0,0,0)" />
<rect x="1000" y="356" width="150" height="1" style="fill:rgb(0,0,0)" />
<rect x="1000" y="359" width="150" height="1" style="fill:rgb(0,0,0)" />
<rect x="1000" y="361" width="150" height="1" style="fill:rgb(0,0,0)" />
<rect x="1000" y="362" width="150" height="1" style="fill:rgb(0,0,0)" />
<rect x="1000" y="363" width="150" height="1" style="fill:rgb(0,0,0)" />
<rect x="1000" y="366" width="150" height="1" style="fill:rgb(0,0,0)" />
<rect x="1000" y="367" width="150" height="1" style="fill:rgb(0,0,0)" />
<rect x="1000" y="370" width="150" height="1" style="fill:rgb(0,0,0)" />
<rect x="1000" y="371" width="150" height="1" style="fill:rgb(0,0,0)" />
<rect x="1000" y="372" width="150" height="1" style="fill:rgb(0,0,0)" />
<rect x="1000" y="374" width="150" height="1" style="fill:rgb(0,0,0)" />
<rect x="1000" y="377" width="150" height="1" style="fill:rgb(0,0,0)" />
<rect x="1000" y="380" width="150" height="1" style="fill:rgb(0,0,0)" />
<rect x="1000" y="385" width="150" height="1" style="fill:rgb(0,0,0)" />
<rect x="1000" y="386" width="150" height="1" style="fill:rgb(0,0,0)" />
<rect x="1000" y="388" width="150" height="1" style="fill:rgb(0,0,0)" />
<rect x="1000" y="389" width="150" height="1" style="fill:rgb(0,0,0)" />
<rect x="1000" y="391" width="150" height="1" style="fill:rgb(0,0,0)" />
<rect x="1000" y="392" width="150" height="1" style="fill:rgb(0,0,0)" />
<rect x="1000" y="393" width="150" height="1" style="fill:rgb(0,0,0)" />
<rect x="1000" y="396" width="150" height="1" style="fill:rgb(0,0,0)" />
<rect x="1000" y="399" width="150" height="1" style="fill:rgb(0,0,0)" />
<rect x="1000" y="400" width="150" height="1" style="fill:rgb(0,0,0)" />
<rect x="1000" y="401" width="150" height="1" style="fill:rgb(0,0,0)" />
<rect x="1000" y="403" width="150" height="1" style="fill:rgb(0,0,0)" />
<rect x="1000" y="406" width="150" height="1" style="fill:rgb(0,0,0)" />
<rect x="1000" y="407" width="150" height="1" style="fill:rgb(0,0,0)" />
<rect x="1000" y="410" width="150" height="1" style="fill:rgb(0,0,0)" />
<rect x="1000" y="413" width="150" height="1" style="fill:rgb(0,0,0)" />
<rect x="1000" y="415" width="150" height="1" style="fill:rgb(0,0,0)" />
<rect x="1000" y="416" width="150" height="1" style="fill:rgb(0,0,0)" />
<rect x="1000" y="421" width="150" height="1" style="fill:rgb(0,0,0)" />
<rect x="1000" y="424" width="150" height="1" style="fill:rgb(0,0,0)" />
<rect x="1000" y="429" width="150" height="1" style="fill:rgb(0,0,0)" />
<rect x="1000" y="430" width="150" height="1" style="fill:rgb(0,0,0)" />
<rect x="1000" y="432" width="150" height="1" style="fill:rgb(0,0,0)" />
<rect x="1000" y="437" width="150" height="1" style="fill:rgb(0,0,0)" />
<rect x="1000" y="440" width="150" height="1" style="fill:rgb(0,0,0)" />
<rect x="1000" y="441" width="150" height="1" style="fill:rgb(0,0,0)" />
<rect x="1000" y="443" width="150" height="1" style="fill:rgb(0,0,0)" />
<rect x="1000" y="444" width="150" height="1" style="fill:rgb(0,0,0)" />
<rect x="1000" y="447" width="150" height="1" style="fill:rgb(0,0,0)" />
<rect x="1000" y="449" width="150" height="1" style="fill:rgb(0,0,0)" />
<rect x="1000" y="450" width="150" height="1" style="fill:rgb(0,0,0)" />
<rect x="1000" y="451" width="150" height="1" style="fill:rgb(0,0,0)" />
<rect x="1000" y="454" width="150" height="1" style="fill:rgb(0,0,0)" />
<rect x="1000" y="457" width="150" height="1" style="fill:rgb(0,0,0)" />
<rect x="1000" y="458" width="150" height="1" style="fill:rgb(0,0,0)" />
<rect x="1000" y="459" width="150" height="1" style="fill:rgb(0,0,0)" />
<rect x="1000" y="461" width="150" height="1" style="fill:rgb(0,0,0)" />
<rect x="1000" y="462" width="150" height="1" style="fill:rgb(0,0,0)" />
<rect x="1000" y="465" width="150" height="1" style="fill:rgb(0,0,0)" />
<rect x="1000" y="470" width="150" height="1" style="fill:rgb(0,0,0)" />
<rect x="1000" y="473" width="150" height="1" style="fill:rgb(0,0,0)" />
<rect x="1000" y="474" width="150" height="1" style="fill:rgb(0,0,0)" />
<rect x="1000" y="476" width="150" height="1" style="fill:rgb(0,0,0)" />
<rect x="1000" y="479" width="150" height="1" style="fill:rgb(0,0,0)" />
<rect x="1000" y="481" width="150" height="1" style="fill:rgb(0,0,0)" />
<rect x="1000" y="482" width="150" height="1" style="fill:rgb(0,0,0)" />
<rect x="1000" y="487" width="150" height="1" style="fill:rgb(0,0,0)" />
<rect x="1000" y="488" width="150" height="1" style="fill:rgb(0,0,0)" />
<rect x="1000" y="491" width="150" height="1" style="fill:rgb(0,0,0)" />
<rect x="1000" y="492" width="150" height="1" style="fill:rgb(0,0,0)" />
<rect x="1000" y="495" width="150" height="1" style="fill:rgb(0,0,0)" />
<rect x="1000" y="496" width="150" height="1" style="fill:rgb(0,0,0)" />
<rect x="1000" y="498" width="150" height="1" style="fill:rgb(0,0,0)" />
<rect x="1000" y="499" width="150" height="1" style="fill:rgb(0,0,0)" />
<rect x="1000" y="503" width="150" height="1" style="fill:rgb(0,0,0)" />
<rect x="1000" y="504" width="150" height="1" style="fill:rgb(0,0,0)" />
<rect x="1000" y="505" width="150" height="1" style="fill:rgb(0,0,0)" />
<rect x="1000" y="507" width="150" height="1" style="fill:rgb(0,0,0)" />
<rect x="1000" y="509" width="150" height="1" style="fill:rgb(0,0,0)" />
<rect x="1000" y="510" width="150" height="1" style="fill:rgb(0,0,0)" />
</svg>
